<?xml version="1.0" encoding="UTF-8"?>
<svg id="Layer_2" data-name="Layer 2" xmlns="http://www.w3.org/2000/svg" viewBox="0 0 196.56 196.56">
  <defs>
    <style>
      .cls-1 {
        fill: #fff;
      }
    </style>
  </defs>
  <g id="Object">
    <g>
      <path class="cls-1" d="m57.42,153.41c-3.76,0-6.74-1.05-8.81-3.16-5.07-5.17-3.97-16.33,3-30.61,13.61-27.87,45.54-60.2,71.19-72.08,11.71-5.42,20.64-5.87,25.15-1.26,5.07,5.17,3.97,16.33-3,30.61-13.61,27.87-45.55,60.2-71.19,72.08-6.35,2.94-11.89,4.42-16.35,4.42ZM122.92,47.83l.12.26c-25.54,11.83-57.35,44.04-70.91,71.81-6.86,14.05-7.99,24.96-3.11,29.95,4.33,4.42,13.03,3.93,24.5-1.38,25.54-11.83,57.35-44.04,70.91-71.81,6.86-14.05,7.99-24.96,3.11-29.95-4.33-4.42-13.03-3.93-24.5,1.38l-.12-.26Z"/>
      <path class="cls-1" d="m54.72,154.16c-4.39,0-7.8-1.26-10.01-3.78-5.16-5.89-3.27-18.05,5.21-33.37,15.99-28.88,50.62-60.87,77.2-71.3,11.68-4.58,20.46-4.42,24.73.46,5.16,5.89,3.27,18.05-5.21,33.37-15.99,28.88-50.62,60.87-77.2,71.3-5.65,2.22-10.62,3.32-14.73,3.32Zm87.13-111.19c-4.03,0-8.93,1.1-14.52,3.29-26.47,10.39-60.97,42.26-76.9,71.04-8.35,15.09-10.27,27.01-5.28,32.71,4.1,4.68,12.66,4.79,24.09.3,26.47-10.39,60.97-42.26,76.9-71.04,8.35-15.09,10.27-27.01,5.28-32.71-2.1-2.39-5.36-3.59-9.57-3.59Z"/>
      <path class="cls-1" d="m52.25,154.73c-5.17,0-9.09-1.52-11.45-4.54-5.23-6.69-2.43-19.88,7.67-36.18,18.44-29.76,55.73-61.11,83.12-69.89,11.57-3.71,20.16-2.91,24.18,2.24,5.23,6.69,2.43,19.88-7.66,36.18-18.44,29.76-55.73,61.11-83.12,69.89-4.79,1.54-9.07,2.3-12.73,2.3Zm92.07-112.34c-3.59,0-7.82.76-12.56,2.28-27.28,8.74-64.42,39.98-82.8,69.64-9.97,16.08-12.77,29.03-7.7,35.52,3.87,4.95,12.23,5.68,23.55,2.05,27.28-8.74,64.42-39.98,82.8-69.64,9.97-16.08,12.77-29.03,7.7-35.52-2.25-2.88-6.01-4.33-10.99-4.33Z"/>
      <path class="cls-1" d="m49.94,155.17c-6.08,0-10.51-1.86-13.04-5.52-5.25-7.59-1.46-21.82,10.38-39.03,20.96-30.48,60.84-60.89,88.89-67.8,11.56-2.85,19.68-1.43,23.5,4.09,5.25,7.59,1.46,21.82-10.38,39.03-20.96,30.48-60.84,60.89-88.89,67.8-3.88.96-7.38,1.43-10.46,1.43Zm96.69-113.21c-3.03,0-6.48.47-10.32,1.42-27.93,6.88-67.66,37.19-88.56,67.57-11.7,17.01-15.49,31-10.38,38.38,3.67,5.31,11.58,6.64,22.89,3.86,27.93-6.88,67.66-37.19,88.56-67.57,11.7-17.01,15.49-31,10.38-38.38-2.42-3.5-6.69-5.27-12.56-5.27Z"/>
      <path class="cls-1" d="m48.13,155.41c-7.27,0-12.43-2.26-15.11-6.68-5.2-8.58-.32-23.85,13.37-41.9,23.54-31.01,65.92-60.17,94.47-64.99l.05.28-.05-.28c11.31-1.91,19.16.16,22.69,5.99,5.2,8.58.32,23.85-13.37,41.9-23.54,31.01-65.92,60.17-94.47,64.99-2.73.46-5.26.69-7.58.69Zm100.32-113.69c-2.28,0-4.78.23-7.49.68-28.43,4.8-70.64,33.86-94.1,64.77-13.35,17.58-18.33,33-13.34,41.25,3.4,5.61,11.04,7.59,22.1,5.72,28.43-4.8,70.64-33.86,94.1-64.77,13.35-17.58,18.33-33,13.34-41.25-2.57-4.24-7.56-6.4-14.61-6.4Z"/>
      <path class="cls-1" d="m46.83,155.52c-8.78,0-14.84-2.78-17.64-8.14-4.98-9.54,1.23-26.27,16.64-44.73,26.15-31.35,70.91-58.91,99.78-61.43,11.02-.96,18.54,1.79,21.76,7.95,4.98,9.55-1.24,26.27-16.64,44.73-26.15,31.35-70.91,58.91-99.78,61.43-1.43.12-2.81.19-4.12.19Zm98.81-114.01l.03.29c-28.73,2.51-73.32,29.97-99.39,61.22-15.25,18.28-21.44,34.77-16.57,44.1,3.1,5.94,10.43,8.58,21.2,7.64,28.73-2.51,73.32-29.97,99.39-61.22,15.25-18.28,21.44-34.77,16.57-44.1-3.1-5.94-10.43-8.58-21.2-7.64l-.03-.29Z"/>
      <path class="cls-1" d="m46.17,155.55h-.01c-10.67,0-17.83-3.46-20.71-9.98-4.73-10.75,2.81-28.5,20.19-47.5,28.78-31.47,75.77-57.06,104.75-57.06h.01c10.67,0,17.83,3.46,20.71,9.98,4.73,10.75-2.82,28.5-20.19,47.5-28.78,31.47-75.77,57.06-104.75,57.06Zm104.22-113.97c-28.84,0-75.63,25.51-104.32,56.88-17.22,18.82-24.73,36.35-20.09,46.88,2.78,6.3,9.75,9.64,20.18,9.64h.01c28.84,0,75.63-25.51,104.32-56.88,17.22-18.82,24.72-36.35,20.09-46.88-2.78-6.3-9.75-9.64-20.18-9.64h-.01Z"/>
      <path class="cls-1" d="m46.2,155.56c-1.67,0-3.28-.07-4.84-.22-10.29-.98-17.05-5.17-19.54-12.11-4.33-12.06,4.65-30.8,24.03-50.13,31.42-31.35,80.47-54.62,109.35-51.87,10.29.98,17.05,5.17,19.54,12.11,4.33,12.06-4.65,30.8-24.03,50.13-29.73,29.66-75.24,52.09-104.5,52.09Zm104.13-113.97c-29.12,0-74.45,22.35-104.08,51.92-19.21,19.17-28.14,37.69-23.89,49.53,2.41,6.71,9,10.77,19.05,11.73,28.72,2.74,77.57-20.45,108.88-51.7,19.21-19.17,28.14-37.69,23.89-49.53-2.41-6.71-9-10.77-19.05-11.73-1.55-.15-3.15-.22-4.81-.22Z"/>
      <path class="cls-1" d="m47.04,155.6c-3.73,0-7.22-.31-10.44-.96-9.89-1.98-16.2-6.94-18.25-14.35-3.73-13.48,6.79-33.13,28.14-52.57,34.04-30.98,84.94-51.52,113.46-45.8,9.89,1.98,16.2,6.94,18.25,14.35,3.73,13.48-6.79,33.13-28.14,52.57-30.2,27.48-73.68,46.76-103.02,46.76Zm102.44-114.06c-29.19,0-72.49,19.22-102.6,46.61-21.19,19.29-31.65,38.72-27.97,51.99,1.99,7.18,8.15,12,17.81,13.94,3.19.64,6.66.95,10.36.95,29.19,0,72.49-19.22,102.6-46.61,21.19-19.29,31.65-38.72,27.97-51.99-1.99-7.18-8.15-12-17.81-13.94-3.19-.64-6.66-.95-10.36-.95Z"/>
      <path class="cls-1" d="m48.83,155.76c-6.26,0-11.97-.75-16.91-2.32-9.47-3.02-15.29-8.81-16.83-16.76-2.91-14.99,9.25-35.44,32.52-54.71,36.61-30.32,89.12-47.75,117.04-38.85,9.47,3.02,15.29,8.81,16.83,16.76,2.91,14.99-9.25,35.44-32.52,54.71-30.13,24.95-71.03,41.17-100.13,41.17Zm98.86-114.4c-28.95,0-69.68,16.18-99.72,41.05-23.1,19.13-35.19,39.38-32.32,54.15,1.5,7.73,7.19,13.37,16.44,16.32,27.76,8.84,80.02-8.54,116.5-38.75,23.1-19.13,35.19-39.38,32.32-54.15-1.5-7.73-7.19-13.37-16.44-16.32-4.9-1.56-10.57-2.31-16.78-2.31Z"/>
      <path class="cls-1" d="m51.68,156.17c-9.33,0-17.64-1.44-24.33-4.47-9.05-4.11-14.33-10.82-15.27-19.4-1.81-16.54,12.07-37.64,37.12-56.44,39.12-29.36,92.95-43.26,120-30.98,9.05,4.11,14.33,10.82,15.27,19.4,1.81,16.54-12.07,37.64-37.12,56.44-29.45,22.11-67.25,35.45-95.67,35.45Zm93.16-115.21c-28.28,0-65.93,13.31-95.29,35.35-24.89,18.68-38.68,39.59-36.89,55.92.91,8.37,6.08,14.92,14.93,18.94,26.88,12.2,80.45-1.67,119.41-30.92,24.89-18.68,38.68-39.59,36.89-55.92-.91-8.37-6.08-14.92-14.93-18.94-6.62-3.01-14.87-4.43-24.12-4.43Z"/>
      <path class="cls-1" d="m55.65,156.92c-12.97,0-24.34-2.43-32.69-7.55-8.63-5.29-13.3-13.02-13.51-22.36-.41-18.08,15.25-39.63,41.89-57.65,41.53-28.09,96.38-38.04,122.26-22.18,8.63,5.29,13.3,13.02,13.51,22.36.41,18.08-15.25,39.63-41.89,57.65-28.13,19.02-62.36,29.73-89.57,29.73Zm85.24-116.73c-27.07,0-61.18,10.68-89.23,29.65-26.47,17.91-42.04,39.27-41.64,57.16.2,9.13,4.78,16.7,13.23,21.88,25.71,15.76,80.27,5.81,121.64-22.16,26.47-17.91,42.04-39.27,41.64-57.16-.2-9.13-4.78-16.7-13.23-21.88-8.28-5.07-19.55-7.48-32.41-7.48Z"/>
      <path class="cls-1" d="m60.68,158.18c-17.15,0-32.05-3.82-41.89-11.74-8.2-6.6-12.17-15.49-11.48-25.71,1.31-19.54,18.78-41.29,46.73-58.18,43.83-26.49,99.34-32.07,123.75-12.43,8.2,6.6,12.17,15.49,11.48,25.71-1.31,19.54-18.78,41.29-46.73,58.18-26.15,15.81-56.47,24.17-81.85,24.17Zm75.21-119.23c-25.27,0-55.48,8.34-81.56,24.1C26.54,79.84,9.17,101.42,7.88,120.77c-.67,10.03,3.22,18.75,11.27,25.22,24.23,19.49,79.45,13.9,123.09-12.48,27.79-16.8,45.15-38.37,46.45-57.72.67-10.03-3.23-18.75-11.27-25.22-9.75-7.84-24.52-11.63-41.53-11.63Z"/>
      <path class="cls-1" d="m66.54,160.06c-21.78,0-40.65-5.7-51.66-17.18-7.74-8.08-10.89-18.29-9.09-29.55,3.32-20.81,22.58-42.45,51.51-57.9,45.98-24.54,101.77-25.32,124.38-1.74,7.74,8.08,10.89,18.29,9.09,29.55-3.32,20.81-22.58,42.45-51.51,57.9-23.59,12.59-49.77,18.92-72.72,18.92Zm63.5-122.99c-22.85,0-48.94,6.32-72.47,18.87-28.78,15.36-47.93,36.85-51.22,57.48-1.76,11.07,1.33,21.12,8.94,29.06,22.44,23.4,77.92,22.57,123.69-1.85,28.78-15.36,47.93-36.85,51.22-57.48,1.77-11.07-1.33-21.12-8.94-29.06-10.9-11.37-29.62-17.02-51.22-17.02Z"/>
      <path class="cls-1" d="m72.87,162.68c-26.68,0-49.86-8.23-61.56-24.04-7.23-9.78-9.38-21.52-6.2-33.94,5.57-21.8,26.53-42.98,56.09-56.68,47.95-22.21,103.6-17.78,124.07,9.9h0c7.23,9.78,9.38,21.52,6.21,33.94-5.57,21.8-26.53,42.98-56.08,56.68-20.54,9.52-42.51,14.14-62.51,14.14ZM123.73,34.44c-19.92,0-41.81,4.61-62.3,14.1-29.4,13.62-50.24,34.66-55.77,56.29-3.13,12.25-1.02,23.82,6.11,33.46,20.31,27.46,75.65,31.82,123.36,9.72,29.4-13.62,50.24-34.66,55.77-56.3,3.13-12.25,1.02-23.82-6.11-33.46-11.59-15.67-34.59-23.82-61.06-23.82Z"/>
      <path class="cls-1" d="m79.19,166.14c-31.65,0-59.31-11.53-71.07-32.42-6.62-11.76-7.55-25.21-2.67-38.92,7.97-22.39,30.49-42.74,60.26-54.42,49.71-19.51,104.77-9.44,122.75,22.47,6.62,11.76,7.55,25.21,2.67,38.92-7.97,22.39-30.49,42.74-60.26,54.42-17.17,6.74-34.98,9.95-51.67,9.95ZM117.4,30.99c-16.63,0-34.38,3.2-51.49,9.92-29.61,11.62-52.01,31.84-59.92,54.08-4.82,13.55-3.91,26.84,2.63,38.45,17.84,31.66,72.58,41.63,122.03,22.21,29.61-11.62,52.01-31.84,59.92-54.08,4.82-13.55,3.91-26.84-2.63-38.45h0c-11.67-20.7-39.11-32.13-70.54-32.13Z"/>
      <path class="cls-1" d="m85.05,170.47c-36.53,0-68.58-15.76-79.69-42.38C-.5,114.05.08,98.67,7.03,83.63c10.4-22.52,34.26-41.63,63.84-51.11,51.22-16.42,105.21-.3,120.33,35.95,5.86,14.05,5.29,29.42-1.66,44.47-10.4,22.52-34.26,41.63-63.84,51.11-13.61,4.36-27.43,6.43-40.65,6.43ZM111.53,26.66c-13.17,0-26.93,2.06-40.49,6.41-29.42,9.43-53.16,28.42-63.49,50.8C.67,98.76.1,113.98,5.9,127.87c11.01,26.4,42.84,42.03,79.13,42.03,13.17,0,26.93-2.06,40.49-6.41,29.42-9.43,53.16-28.42,63.49-50.8,6.88-14.9,7.45-30.11,1.65-44.01-11.01-26.4-42.84-42.03-79.13-42.03Z"/>
      <path class="cls-1" d="m90.08,175.71c-41.22,0-77.33-21.05-86.96-53.96-4.88-16.68-2.49-34.14,6.92-50.49,12.92-22.46,37.22-39.5,66.65-46.76,52.47-12.93,104.84,9.64,116.75,50.31,4.88,16.68,2.49,34.14-6.92,50.49-12.92,22.46-37.22,39.5-66.65,46.76-10.02,2.47-20.05,3.65-29.79,3.65ZM106.49,21.43c-9.7,0-19.67,1.17-29.66,3.63-29.28,7.22-53.45,24.16-66.29,46.48C1.21,87.76-1.17,105.06,3.67,121.59c9.56,32.65,45.43,53.54,86.4,53.54,9.7,0,19.67-1.17,29.66-3.63,29.28-7.22,53.45-24.16,66.29-46.48,9.33-16.22,11.71-33.52,6.87-50.04-9.56-32.65-45.43-53.55-86.4-53.55Z"/>
      <path class="cls-1" d="m94.04,181.82c-45.7,0-85.3-27.5-92.6-67.15-3.57-19.38,1.12-39.57,13.2-56.83,15.07-21.53,40.06-36.65,68.57-41.47,53.4-9.03,103.61,20.36,111.92,65.52,3.57,19.38-1.12,39.57-13.2,56.83-15.07,21.53-40.06,36.65-68.57,41.47-6.51,1.1-12.98,1.63-19.32,1.63ZM102.53,15.31c-6.32,0-12.75.53-19.23,1.62-28.36,4.8-53.22,19.83-68.19,41.23C3.11,75.31-1.54,95.33,2,114.56c7.25,39.38,46.61,66.68,92.03,66.68,6.32,0,12.75-.53,19.23-1.62,28.36-4.8,53.22-19.83,68.19-41.23,11.99-17.14,16.65-37.16,13.11-56.39h0c-7.25-39.38-46.61-66.68-92.03-66.68Z"/>
      <path class="cls-1" d="m96.79,188.79c-50.01,0-92.32-35.16-96.41-81.94C-3.97,57.17,36.41,12.91,90.4,8.18c26.15-2.29,51.55,4.93,71.53,20.32,19.99,15.4,32.15,37.14,34.26,61.21,2.11,24.07-6.1,47.59-23.11,66.23-17,18.63-40.77,30.15-66.91,32.44-3.15.28-6.28.41-9.38.41Zm3.09-180.44c-3.13,0-6.27.14-9.43.41C36.78,13.45-3.37,57.43.95,106.8c4.07,46.48,46.14,81.41,95.84,81.42,3.08,0,6.19-.13,9.33-.41,26-2.28,49.63-13.73,66.54-32.25,16.9-18.52,25.05-41.88,22.96-65.79-2.09-23.91-14.18-45.5-34.04-60.8-17.45-13.45-39.07-20.62-61.7-20.62Z"/>
      <path class="cls-1" d="m98.28,196.56C44.09,196.56,0,152.47,0,98.28S44.09,0,98.28,0s98.28,44.09,98.28,98.28-44.09,98.28-98.28,98.28ZM98.28.58C44.41.58.58,44.41.58,98.28s43.83,97.7,97.7,97.7,97.7-43.83,97.7-97.7S152.15.58,98.28.58Z"/>
    </g>
  </g>
</svg>