<?xml version="1.0" encoding="UTF-8"?>
<svg id="Layer_2" data-name="Layer 2" xmlns="http://www.w3.org/2000/svg" viewBox="0 0 205.91 180.56">
  <defs>
    <style>
      .cls-1 {
        fill: #fff;
      }
    </style>
  </defs>
  <g id="Object">
    <g>
      <path class="cls-1" d="m48.64,166.83c-1.14,0-2.18-.32-3.03-.96-1.35-1-2.06-2.67-2-4.7l2.82-104.16c.11-4.19,3.51-8.67,7.57-9.99L155.03,14.12c2.02-.66,3.89-.45,5.27.58,1.35,1,2.06,2.67,2,4.7l-2.82,104.16c-.11,4.19-3.51,8.67-7.57,9.99l-101.03,32.9c-.77.25-1.53.38-2.24.38ZM157.26,14.1c-.67,0-1.39.12-2.13.36L54.1,47.36c-3.93,1.28-7.21,5.61-7.32,9.66l-2.82,104.16c-.05,1.91.61,3.47,1.86,4.4,1.29.96,3.04,1.15,4.95.53l101.03-32.9c3.93-1.28,7.21-5.61,7.32-9.66l2.82-104.16h.18s-.18,0-.18,0c.05-1.91-.61-3.47-1.86-4.4-.79-.59-1.75-.89-2.82-.89Z"/>
      <path class="cls-1" d="m42.74,164.03c-1.34,0-2.52-.41-3.43-1.22-1.3-1.15-1.89-2.95-1.65-5.07l11.88-106.72c.48-4.29,4.25-8.58,8.41-9.58l103.52-24.71c2.03-.48,3.85-.13,5.14,1.01,1.3,1.15,1.89,2.95,1.65,5.07l-11.88,106.72c-.48,4.29-4.25,8.58-8.41,9.58l-103.52,24.71c-.59.14-1.16.21-1.71.21ZM163.17,16.9c-.52,0-1.06.07-1.62.2l-103.52,24.71c-4.02.96-7.67,5.12-8.13,9.26l-11.88,106.72c-.22,2,.32,3.68,1.53,4.75,1.19,1.05,2.9,1.38,4.81.93l103.52-24.71c4.02-.96,7.67-5.12,8.13-9.26l11.88-106.72c.22-2-.32-3.68-1.53-4.75-.84-.75-1.94-1.13-3.19-1.13Z"/>
      <path class="cls-1" d="m37.13,160.64c-1.55,0-2.89-.52-3.84-1.52-1.25-1.3-1.7-3.22-1.27-5.41l21.14-108.53c.85-4.36,4.98-8.43,9.21-9.08l105.28-16.08c2.03-.31,3.79.2,4.97,1.43,1.25,1.3,1.7,3.22,1.27,5.41l-21.14,108.53c-.85,4.36-4.98,8.43-9.21,9.08l-105.28,16.08c-.39.06-.76.09-1.13.09ZM168.78,20.3c-.35,0-.7.03-1.07.08l-105.28,16.08c-4.09.62-8.09,4.56-8.91,8.78l-21.14,108.53c-.4,2.07.01,3.88,1.17,5.09,1.1,1.14,2.75,1.61,4.65,1.32l105.28-16.08c4.09-.62,8.08-4.56,8.91-8.78l21.14-108.53.18.04-.18-.04c.4-2.07-.01-3.88-1.17-5.09-.89-.92-2.13-1.41-3.58-1.41Z"/>
      <path class="cls-1" d="m31.88,156.65c-1.78,0-3.29-.65-4.27-1.86-1.16-1.43-1.47-3.52-.85-5.74l30.52-109.56c1.23-4.4,5.7-8.21,9.97-8.5l106.28-7.05c2-.13,3.7.52,4.77,1.84,1.16,1.43,1.47,3.52.85,5.74l-30.52,109.56c-1.23,4.4-5.7,8.21-9.97,8.5l-106.28,7.05c-.17.01-.34.02-.5.02ZM174.03,24.29c-.16,0-.32,0-.48.02l-106.28,7.05c-4.13.27-8.45,3.96-9.64,8.22l-30.52,109.56c-.59,2.1-.3,4.07.78,5.4,1,1.22,2.58,1.83,4.46,1.71l106.28-7.05c4.13-.27,8.45-3.96,9.64-8.22l30.52-109.56c.59-2.1.3-4.07-.78-5.4-.91-1.12-2.31-1.72-3.98-1.72Z"/>
      <path class="cls-1" d="m133.52,154.39c-.06,0-.11,0-.17,0l-106.49-2.31c-1.97-.04-3.58-.84-4.55-2.25-1.08-1.57-1.22-3.78-.4-6.04L61.87,34.01c1.58-4.35,6.27-7.83,10.51-7.83.06,0,.11,0,.17,0l106.49,2.31c1.97.04,3.58.84,4.55,2.25,1.08,1.57,1.22,3.78.4,6.04l-.18-.07.18.07-39.95,109.78c-1.58,4.35-6.27,7.83-10.51,7.83ZM72.39,26.56c-4.09,0-8.62,3.37-10.15,7.58l-39.95,109.78c-.78,2.15-.65,4.23.35,5.7.89,1.3,2.4,2.04,4.24,2.08l106.49,2.31c4.14.09,8.76-3.31,10.31-7.58l39.95-109.78c.78-2.15.65-4.23-.35-5.7-.89-1.3-2.4-2.04-4.24-2.08l-106.49-2.31c-.05,0-.11,0-.16,0Z"/>
      <path class="cls-1" d="m128.52,158.89c-.29,0-.58-.02-.87-.05l-105.88-11.94c-1.92-.22-3.45-1.15-4.29-2.64-.98-1.72-.95-4.02.09-6.31L66.93,28.8c1.98-4.38,7.06-7.56,11.33-7.08l105.88,11.94c1.92.22,3.45,1.15,4.29,2.64.98,1.72.95,4.02-.09,6.31l-.18-.08.18.08-49.37,109.16c-1.85,4.09-6.39,7.13-10.46,7.13ZM77.38,22.06c-3.92,0-8.3,2.94-10.09,6.9l-49.37,109.16c-.98,2.17-1.02,4.35-.11,5.96.78,1.38,2.2,2.24,4,2.45l105.88,11.94c4.11.46,9.01-2.61,10.93-6.86l49.37-109.16c.98-2.17,1.02-4.35.11-5.96-.78-1.38-2.2-2.24-4-2.45l-105.88-11.94c-.27-.03-.55-.05-.83-.05Z"/>
      <path class="cls-1" d="m123.18,163.07c-.55,0-1.08-.05-1.6-.16l-104.44-21.77c-1.87-.39-3.3-1.46-4.02-3.03-.86-1.87-.64-4.25.61-6.54L72.42,23.91c2.36-4.33,7.7-7.13,11.91-6.25l104.44,21.77c1.87.39,3.3,1.46,4.02,3.03.86,1.87.64,4.25-.61,6.54l-58.69,107.67c-2.07,3.79-6.43,6.42-10.3,6.42ZM82.71,17.88c-3.74,0-7.94,2.54-9.94,6.21L14.08,131.76c-1.19,2.18-1.4,4.43-.59,6.18.67,1.45,2,2.44,3.74,2.81l104.44,21.77c4.05.84,9.2-1.87,11.48-6.06l58.69-107.67.17.09-.17-.09c1.19-2.18,1.4-4.43.59-6.18-.67-1.45-2-2.44-3.74-2.81l-104.44-21.77c-.5-.1-1.01-.15-1.54-.15Z"/>
      <path class="cls-1" d="m117.54,166.89c-.82,0-1.62-.11-2.37-.34l-102.14-31.75c-1.8-.56-3.12-1.77-3.72-3.4-.73-2-.31-4.45,1.15-6.72L78.32,19.38c2.73-4.23,8.29-6.63,12.41-5.35l102.14,31.75c1.8.56,3.12,1.77,3.72,3.4.73,2,.31,4.45-1.15,6.72l-67.85,105.3c-2.23,3.46-6.36,5.7-10.04,5.7ZM88.35,14.07c-3.55,0-7.53,2.17-9.69,5.52L10.8,124.89c-1.39,2.16-1.8,4.48-1.11,6.36.55,1.51,1.78,2.64,3.46,3.16l102.14,31.75c3.96,1.23,9.32-1.1,11.96-5.19l67.85-105.3.17.11-.17-.11c1.39-2.16,1.8-4.48,1.11-6.36-.55-1.52-1.78-2.64-3.46-3.16L90.61,14.4c-.72-.22-1.48-.33-2.26-.33Z"/>
      <path class="cls-1" d="m111.64,170.3c-1.12,0-2.19-.19-3.16-.6L9.49,127.92c-1.73-.73-2.93-2.07-3.39-3.78-.57-2.13.05-4.63,1.72-6.84L84.59,15.25c3.09-4.1,8.85-6.07,12.84-4.38l98.99,41.78c1.73.73,2.93,2.07,3.39,3.78.57,2.13-.05,4.63-1.72,6.84h0s-76.77,102.05-76.77,102.05c-2.34,3.11-6.2,4.99-9.68,4.99ZM94.26,10.66c-3.34,0-7.08,1.82-9.34,4.83L8.14,117.54c-1.59,2.11-2.19,4.48-1.65,6.49.43,1.58,1.55,2.83,3.16,3.51l98.99,41.78c3.83,1.62,9.37-.29,12.36-4.25l76.77-102.05.16.12-.16-.12c1.59-2.11,2.19-4.48,1.65-6.49-.43-1.58-1.55-2.83-3.16-3.51L97.27,11.24c-.93-.39-1.95-.58-3.02-.58Z"/>
      <path class="cls-1" d="m105.51,173.28c-1.43,0-2.8-.3-3.97-.94L6.56,120.53c-1.64-.9-2.73-2.37-3.04-4.14-.4-2.25.43-4.77,2.3-6.9L91.2,11.58c3.43-3.94,9.35-5.44,13.18-3.35l94.97,51.8c1.64.9,2.73,2.37,3.04,4.14.4,2.25-.43,4.77-2.3,6.9l-.16-.14.16.14-85.38,97.91c-2.38,2.73-5.96,4.29-9.21,4.29ZM100.39,7.69c-3.13,0-6.58,1.51-8.89,4.16L6.13,109.76c-1.78,2.04-2.58,4.43-2.2,6.56.3,1.65,1.3,3.02,2.83,3.85l94.97,51.8c3.67,2,9.36.54,12.67-3.26l85.38-97.91c1.78-2.04,2.58-4.43,2.2-6.56-.3-1.65-1.3-3.02-2.83-3.85L104.18,8.59c-1.12-.61-2.42-.9-3.79-.9Z"/>
      <path class="cls-1" d="m99.18,175.79c-1.77,0-3.45-.44-4.8-1.37L4.29,112.68c-1.55-1.06-2.5-2.66-2.67-4.5-.21-2.35.84-4.87,2.89-6.9L98.09,8.4c3.77-3.74,9.79-4.75,13.43-2.26l90.09,61.73c1.55,1.06,2.5,2.66,2.67,4.5.21,2.35-.84,4.87-2.89,6.9l-93.58,92.88c-2.37,2.35-5.63,3.62-8.63,3.62ZM106.72,5.19c-2.89,0-6.04,1.23-8.33,3.51L4.81,101.58c-1.96,1.95-2.97,4.34-2.77,6.57.16,1.71,1.04,3.2,2.49,4.2l90.09,61.73c3.48,2.39,9.27,1.4,12.9-2.21l93.58-92.88.15.15-.15-.15c1.96-1.95,2.97-4.34,2.77-6.57-.16-1.71-1.04-3.2-2.49-4.19L111.29,6.49c-1.28-.88-2.88-1.3-4.57-1.3Z"/>
      <path class="cls-1" d="m92.7,177.8c-2.13,0-4.13-.62-5.62-1.88L2.71,104.42c-1.45-1.23-2.26-2.96-2.26-4.86,0-2.43,1.26-4.92,3.48-6.82L105.25,5.76c4.08-3.5,10.17-4,13.58-1.11l84.37,71.5c1.45,1.23,2.26,2.96,2.26,4.86,0,2.43-1.26,4.92-3.48,6.82l-101.32,86.98c-2.3,1.97-5.23,2.99-7.96,2.99ZM113.21,3.19c-2.63,0-5.47.99-7.69,2.89L4.2,93.06c-2.12,1.82-3.34,4.19-3.33,6.5,0,1.77.76,3.39,2.11,4.54l84.37,71.5c3.26,2.76,9.1,2.26,13.03-1.11l101.32-86.98.14.16-.14-.16c2.12-1.82,3.34-4.19,3.33-6.5,0-1.77-.76-3.39-2.11-4.54L118.56,4.97c-1.42-1.2-3.32-1.79-5.35-1.79Z"/>
      <path class="cls-1" d="m86.1,179.28c-2.49,0-4.84-.83-6.43-2.48L1.85,95.79c-1.34-1.4-1.99-3.25-1.83-5.21.21-2.49,1.69-4.92,4.06-6.67L112.6,3.69c4.37-3.23,10.49-3.2,13.64.08l77.82,81.01c1.34,1.4,1.99,3.25,1.83,5.21-.21,2.49-1.69,4.92-4.06,6.67l-.13-.17.13.17-108.52,80.22c-2.17,1.6-4.76,2.4-7.21,2.4ZM119.82,1.71c-2.36,0-4.87.77-6.96,2.32L4.34,84.26c-2.27,1.68-3.68,3.99-3.88,6.36-.16,1.83.45,3.56,1.71,4.87l77.82,81.01c3,3.13,8.87,3.14,13.07.03l108.52-80.22c2.27-1.68,3.68-3.99,3.88-6.36.15-1.83-.45-3.56-1.71-4.87L125.93,4.07c-1.51-1.57-3.73-2.35-6.11-2.35Z"/>
      <path class="cls-1" d="m79.41,180.21c-2.87,0-5.56-1.09-7.19-3.17L1.75,86.85c-1.23-1.57-1.71-3.54-1.36-5.55.44-2.52,2.12-4.87,4.61-6.44L120.11,2.22c4.64-2.93,10.74-2.34,13.59,1.31l70.46,90.19c1.23,1.57,1.71,3.54,1.36,5.55-.44,2.52-2.12,4.87-4.61,6.44l-115.1,72.64c-1.99,1.25-4.24,1.86-6.4,1.86ZM126.51.79c-2.07,0-4.25.59-6.17,1.8L5.24,75.23c-2.39,1.51-4,3.75-4.42,6.15-.33,1.89.12,3.73,1.27,5.21l70.46,90.19c2.72,3.48,8.55,4.02,13.01,1.21l115.1-72.64.12.19-.12-.19c2.39-1.51,4-3.75,4.42-6.14.33-1.89-.12-3.74-1.27-5.21L133.35,3.8c-1.55-1.98-4.1-3.01-6.84-3.01Z"/>
      <path class="cls-1" d="m72.67,180.56c-3.26,0-6.29-1.39-7.9-3.95L2.43,77.66c-1.1-1.74-1.4-3.83-.85-5.88.67-2.52,2.54-4.75,5.14-6.13L127.71,1.39c4.88-2.59,10.91-1.44,13.43,2.56l62.33,98.95c1.1,1.74,1.4,3.83.85,5.88-.67,2.52-2.54,4.75-5.14,6.13l-.1-.2.1.2-120.99,64.26c-1.77.94-3.68,1.39-5.53,1.39ZM133.25.44c-1.78,0-3.62.43-5.33,1.34L6.93,66.04c-2.49,1.32-4.28,3.45-4.92,5.86-.51,1.93-.23,3.89.8,5.53l62.33,98.95c2.4,3.81,8.17,4.89,12.85,2.41l120.99-64.26c2.49-1.32,4.28-3.46,4.92-5.86.51-1.93.23-3.89-.8-5.53L140.77,4.19c-1.53-2.43-4.42-3.75-7.52-3.75Z"/>
      <path class="cls-1" d="m65.92,180.32c-3.64,0-7.01-1.76-8.54-4.81L3.91,68.28c-.95-1.91-1.06-4.11-.31-6.19.9-2.49,2.95-4.58,5.63-5.75L135.36,1.21c5.09-2.23,11-.5,13.16,3.84l53.47,107.23c.95,1.91,1.06,4.11.31,6.19-.9,2.49-2.95,4.58-5.63,5.75l-.09-.21.09.21-126.13,55.12c-1.51.66-3.09.97-4.63.97ZM140,.69c-1.48,0-3,.3-4.45.94L9.41,56.75c-2.56,1.12-4.52,3.12-5.38,5.49-.71,1.96-.61,4.04.29,5.84l53.47,107.23c2.06,4.13,7.7,5.76,12.58,3.63l126.13-55.12c2.56-1.12,4.52-3.12,5.38-5.49.71-1.96.61-4.04-.29-5.84L148.12,5.26c-1.45-2.9-4.66-4.57-8.13-4.57Z"/>
      <path class="cls-1" d="m59.2,179.47c-4.02,0-7.72-2.18-9.08-5.76L6.2,58.79c-.8-2.08-.7-4.38.28-6.48,1.13-2.43,3.34-4.36,6.06-5.3L143,1.72c5.27-1.83,11.01.47,12.79,5.13l43.92,114.93c.8,2.08.7,4.38-.28,6.48-1.13,2.43-3.34,4.36-6.06,5.3l-.08-.22.08.22-130.45,45.28c-1.23.43-2.48.63-3.71.63ZM146.71,1.55c-1.18,0-2.38.19-3.56.6L12.69,47.44c-2.61.9-4.72,2.75-5.8,5.06-.92,1.98-1.02,4.16-.27,6.12l43.92,114.93c1.69,4.43,7.17,6.61,12.21,4.86l130.45-45.28c2.61-.9,4.72-2.75,5.8-5.06.92-1.98,1.02-4.16.27-6.12L155.36,7.01c-1.3-3.39-4.81-5.46-8.65-5.46Z"/>
      <path class="cls-1" d="m52.57,177.99c-4.41,0-8.39-2.68-9.52-6.77L9.31,49.24c-.62-2.25-.3-4.64.91-6.73,1.35-2.33,3.69-4.08,6.44-4.79L150.56,2.94c5.42-1.41,10.93,1.47,12.3,6.41l33.74,121.98c.62,2.25.3,4.64-.91,6.73-1.35,2.33-3.69,4.08-6.44,4.79l-.06-.23.06.23-133.9,34.78c-.93.24-1.86.36-2.78.36ZM153.34,3.04c-.88,0-1.77.11-2.66.34L16.77,38.17c-2.63.68-4.87,2.35-6.15,4.57-1.14,1.98-1.45,4.24-.86,6.37l33.74,121.98c1.3,4.7,6.57,7.43,11.73,6.09l133.9-34.78c2.63-.68,4.87-2.35,6.15-4.57,1.14-1.98,1.45-4.24.86-6.37L162.41,9.47c-1.08-3.89-4.86-6.43-9.07-6.43Z"/>
      <path class="cls-1" d="m46.07,175.87c-4.8,0-9.02-3.24-9.85-7.85L13.24,39.72c-.43-2.41.12-4.88,1.57-6.94,1.57-2.24,3.97-3.74,6.76-4.23L157.99,4.86c5.52-.96,10.77,2.49,11.7,7.69l22.98,128.3c.43,2.41-.12,4.88-1.57,6.94-1.57,2.24-3.97,3.74-6.76,4.23l-136.43,23.69c-.62.11-1.24.16-1.85.16ZM159.84,5.17c-.58,0-1.17.05-1.77.15L21.65,29.01c-2.66.46-4.95,1.89-6.45,4.03-1.37,1.96-1.9,4.3-1.49,6.59l22.98,128.3c.89,4.94,5.89,8.22,11.15,7.31l136.43-23.69.04.23-.04-.23c2.66-.46,4.95-1.89,6.45-4.03,1.37-1.96,1.9-4.3,1.49-6.59L169.22,12.63c-.79-4.39-4.81-7.46-9.39-7.46Z"/>
      <path class="cls-1" d="m39.75,173.11c-2.37,0-4.64-.8-6.48-2.29-2.08-1.69-3.35-4.07-3.58-6.69L17.99,30.29c-.23-2.63.61-5.19,2.36-7.21,1.75-2.02,4.2-3.27,6.91-3.5L165.23,7.5c2.7-.24,5.34.56,7.41,2.25,2.08,1.69,3.35,4.07,3.58,6.69l11.71,133.83c.47,5.42-3.68,10.23-9.27,10.72h0l-137.97,12.07c-.31.03-.62.04-.93.04ZM166.16,7.94c-.29,0-.59.01-.89.04L27.3,20.05c-2.58.23-4.92,1.41-6.59,3.34-1.67,1.93-2.46,4.36-2.25,6.86l11.71,133.83c.22,2.5,1.43,4.76,3.4,6.36,1.98,1.61,4.49,2.37,7.07,2.14l137.97-12.07c5.32-.47,9.28-5.04,8.83-10.2l-11.71-133.83c-.22-2.5-1.43-4.76-3.4-6.36-1.75-1.42-3.92-2.18-6.18-2.18Z"/>
      <path class="cls-1" d="m172.2,169.7H33.71c-5.61,0-10.17-4.56-10.17-10.17V21.03c0-5.61,4.56-10.17,10.17-10.17h138.5c5.61,0,10.17,4.56,10.17,10.17v138.5c0,5.61-4.56,10.17-10.17,10.17ZM33.71,11.35c-5.34,0-9.68,4.34-9.68,9.68v138.5c0,5.34,4.34,9.68,9.68,9.68h138.5c5.34,0,9.68-4.34,9.68-9.68V21.03c0-5.34-4.34-9.68-9.68-9.68H33.71Z"/>
    </g>
  </g>
</svg>