<svg width="528" height="527" viewBox="0 0 528 527" fill="none" xmlns="http://www.w3.org/2000/svg">
<g clip-path="url(#clip0_2006_111)">
<path d="M264.478 0C118.959 0 1 117.981 1 263.5C1 409.019 118.959 527 264.478 527C409.997 527 527.956 409.019 527.956 263.5C527.956 117.981 409.975 0 264.478 0ZM264.478 491.719C137.857 491.719 35.2089 389.049 35.2089 262.428C35.2089 135.807 137.857 33.1152 264.478 33.1152C391.099 33.1152 493.747 135.786 493.747 262.406C493.747 389.027 391.099 491.698 264.478 491.698V491.719Z" fill="white"/>
<path d="M35.165 262.406C35.165 389.027 137.835 491.676 264.456 491.676C391.099 491.676 493.747 389.027 493.747 262.406C493.747 135.786 391.099 33.1371 264.478 33.1371C137.835 33.1371 35.1869 135.786 35.1869 262.406H35.165Z" fill="url(#paint0_linear_2006_111)"/>
<path d="M312.707 193.354C316.12 193.354 320.888 191.386 323.294 188.98L385.937 126.315C388.343 123.909 387.534 121.94 384.122 121.94H145.906C142.494 121.94 141.685 123.909 144.091 126.315L206.734 188.98C209.14 191.386 213.909 193.354 217.321 193.354H312.707Z" fill="white"/>
<path d="M195.404 215.271C195.404 211.859 193.436 207.09 191.03 204.684L128.386 142.019C125.981 139.613 124.012 140.423 124.012 143.835V382.072C124.012 385.484 125.981 386.293 128.386 383.887L191.03 321.222C193.436 318.816 195.404 314.048 195.404 310.636V215.249V215.271Z" fill="white"/>
<path d="M218.414 331.48C215.002 331.48 210.234 333.449 207.828 335.855L145.185 398.52C142.779 400.926 143.588 402.894 147 402.894H383.028C386.44 402.894 387.249 400.926 384.843 398.52L322.2 335.855C319.794 333.449 315.026 331.48 311.614 331.48H218.414Z" fill="white"/>
<path d="M286.57 262.406C283.157 262.406 282.348 264.375 284.754 266.803L400.57 382.794C402.976 385.2 404.944 384.39 404.944 380.978V268.596C404.944 265.184 402.145 262.406 398.754 262.406H286.591H286.57Z" fill="white"/>
</g>
<defs>
<linearGradient id="paint0_linear_2006_111" x1="102.344" y1="424.526" x2="426.595" y2="100.274" gradientUnits="userSpaceOnUse">
<stop stop-color="#5E4D15"/>
<stop offset="0.06" stop-color="#7C6517"/>
<stop offset="0.14" stop-color="#C09E44"/>
<stop offset="0.18" stop-color="#DBB556"/>
<stop offset="0.21" stop-color="#D1AB4F"/>
<stop offset="0.27" stop-color="#B6933E"/>
<stop offset="0.31" stop-color="#A07F31"/>
<stop offset="0.41" stop-color="#73571B"/>
<stop offset="0.46" stop-color="#5E4411"/>
<stop offset="0.49" stop-color="#6D5014"/>
<stop offset="0.55" stop-color="#96721E"/>
<stop offset="0.59" stop-color="#B38A26"/>
<stop offset="0.62" stop-color="#C09934"/>
<stop offset="0.65" stop-color="#C6A03B"/>
<stop offset="0.66" stop-color="#C9A542"/>
<stop offset="0.68" stop-color="#D3B655"/>
<stop offset="0.71" stop-color="#E4D075"/>
<stop offset="0.73" stop-color="#F8F19D"/>
<stop offset="0.78" stop-color="#F9F2A1"/>
<stop offset="0.82" stop-color="#E6D47F"/>
<stop offset="0.89" stop-color="#C7A449"/>
<stop offset="0.93" stop-color="#BC9234"/>
</linearGradient>
<clipPath id="clip0_2006_111">
<rect width="527" height="527" fill="white" transform="translate(1)"/>
</clipPath>
</defs>
</svg>
