<?xml version="1.0" encoding="UTF-8"?>
<svg id="Layer_1" xmlns="http://www.w3.org/2000/svg" xmlns:xlink="http://www.w3.org/1999/xlink" version="1.1" viewBox="0 0 1745.2 448.4">
  <!-- Generator: Adobe Illustrator 29.4.0, SVG Export Plug-In . SVG Version: 2.1.0 Build 152)  -->
  <defs>
    <style>
      .st0 {
        fill: url(#linear-gradient1);
      }

      .st1 {
        fill: url(#linear-gradient);
      }

      .st2 {
        fill: #fff;
      }

      .st3 {
        fill: #00ace5;
      }
    </style>
    <linearGradient id="linear-gradient" x1="797.2" y1="193.7" x2="607.7" y2="389.9" gradientTransform="translate(0 447.9) scale(1 -1)" gradientUnits="userSpaceOnUse">
      <stop offset=".2" stop-color="#ff0079"/>
      <stop offset=".9" stop-color="#592489"/>
    </linearGradient>
    <linearGradient id="linear-gradient1" x1="3754" y1="-13505.8" x2="3564.6" y2="-13309.6" gradientTransform="translate(4701.9 13523.7) rotate(-180) scale(1 -1)" gradientUnits="userSpaceOnUse">
      <stop offset=".2" stop-color="#ff4b00"/>
      <stop offset=".7" stop-color="#ffab00"/>
    </linearGradient>
  </defs>
  <path class="st2" d="M0,445.9v-113h30.4v113H0ZM124.3,445.9l-39.2-67.1v67.1h-29.5v-113h34.4l35.2,61.4v-61.4h29.6v113h-30.6ZM233.3,361.1v84.8h-30v-84.8h-32.5v-28.2h95.2v28.2h-32.7ZM281.9,445.9v-113h72.4v25.8h-42.7v17.9h38.9v24.9h-38.9v18.2h43v26.3h-72.7,0ZM375.8,445.9v-113h47.6c23,0,37.9,15.3,37.9,36.3s-8.5,26.6-20.9,31.6l21.4,45.1h-32.4l-17.9-41h-6.2v41h-29.6ZM417.9,382c8.9,0,13.5-5.1,13.5-12.3s-4.6-12.1-13.5-12.1h-12.4v24.4h12.4ZM549.5,445.9l-39.2-67.1v67.1h-29.5v-113h34.4l35.2,61.4v-61.4h29.6v113h-30.6,0ZM605.3,445.9v-113h72.4v25.8h-42.7v17.9h38.9v24.9h-38.9v18.2h43v26.3h-72.7,0ZM757.4,361.1v84.8h-30v-84.8h-32.5v-28.2h95.2v28.2h-32.7ZM868.6,389.5c0,18.8,13.4,29.6,27.1,29.6s22.3-9.7,24.7-17.7l28,8.1c-4.5,16.7-19.4,38.7-52.9,38.7s-57.8-22.8-57.8-58.6,26.9-59.1,57.5-59.1,47.3,19.8,52,36.7l-27.6,9.4c-2.1-7.5-8.1-17.4-24.1-17.4s-26.9,9.7-26.9,30.3h0ZM1016,330.5c31.1,0,58,22.3,58,59s-26.9,59-58,59-58-22.3-58-59,26.9-59,58-59h0ZM1016,419.6c13.2,0,27.3-9.4,27.3-30.3s-14-30-27.2-30-27.2,9.4-27.2,30,14,30.3,27.2,30.3h0ZM1192.2,445.9v-70l-24.7,70h-23.6l-24.5-69.2v69.2h-28.4v-113h39.7l25.3,68.9,24.2-68.9h40.8v113h-28.9ZM1275.9,407.3v38.6h-29.6v-113h45.1c23.6,0,39.7,15.5,39.7,37.3s-16.1,37.1-39.7,37.1h-15.5ZM1287.5,382.6c7.8,0,13.6-4.6,13.6-12.3s-5.7-12.4-13.6-12.4h-11.5v24.7h11.5ZM1346.5,404.4v-71.6h29.8v70.6c0,11.2,5.7,17,15.6,17s15.5-5.9,15.5-17v-70.6h29.8v71.6c0,28.4-19,44-45.3,44s-45.4-15.6-45.4-44ZM1515.6,361.1v84.8h-30v-84.8h-32.5v-28.2h95.2v28.2h-32.7ZM1564.2,445.9v-113h72.4v25.8h-42.7v17.9h38.9v24.9h-38.9v18.2h43v26.3h-72.7ZM1659.1,445.9v-113h47.7c22.9,0,37.9,15.3,37.9,36.3s-8.4,26.6-20.9,31.6l21.4,45.1h-32.3l-17.8-41h-6.2v41h-29.6ZM1701.2,382c8.9,0,13.6-5.1,13.6-12.3s-4.6-12.1-13.6-12.1h-12.4v24.4h12.4Z"/>
  <path class="st3" d="M1057.6,226c-39.3,0-80.8-25.7-101.2-44.4-22.3-20.4-83.5-86.8-83.8-87.1C832.4,49.7,778.4,0,724.6,0s-121.4,44.9-136.2,104.4c1.1-3.9,21.7-58.4,99.2-58.4s80.8,25.7,101.2,44.4c22.3,20.4,83.5,86.8,83.8,87.1,40.2,44.8,94.1,94.5,148,94.5s121.4-44.9,136.2-104.4c-1.1,3.9-21.7,58.4-99.2,58.4h0Z"/>
  <path class="st1" d="M872.6,177.5c-.1-.2-17.8-19.3-37.5-40.1-10.7,12.7-26.1,30-43.8,45.5-33,28.9-54.4,35-66.7,35-46.3,0-84-36.7-84-81.8s37.7-81.5,84-81.8c1.7,0,3.7.2,6.2.6-13.9-5.3-28.7-8.8-43.2-8.8-77.4,0-98,54.5-99.2,58.4-2.6,10.3-3.8,20.9-3.8,31.6,0,75,61.9,136,139,136s68.2-16.5,105.3-49c17.5-15.4,32.8-31.8,44.2-45-.2-.2-.3-.3-.4-.5h0Z"/>
  <path class="st0" d="M872.6,94.5c.1.2,17.8,19.3,37.5,40.1,10.7-12.7,26.1-30,43.8-45.5,33-28.9,54.4-35,66.7-35,46.3,0,84,36.7,84,81.8s-37.7,81.5-84,81.8c-1.7,0-3.7-.2-6.2-.6,13.9,5.3,28.7,8.8,43.2,8.8,77.4,0,98-54.5,99.2-58.4,2.5-10.1,3.8-20.7,3.8-31.6C1160.6,61,1097.7,0,1020.6,0s-67.2,16.5-104.3,49c-17.5,15.4-32.8,31.8-44.2,45,.2.2.3.3.4.5h0Z"/>
</svg>