<?xml version="1.0" encoding="UTF-8"?>
<svg id="Layer_2" data-name="Layer 2" xmlns="http://www.w3.org/2000/svg" viewBox="0 0 606.66 131.18">
  <defs>
    <style>
      .cls-1 {
        fill: #fc0;
      }
    </style>
  </defs>
  <g id="Layer_1-2" data-name="Layer 1">
    <g>
      <path class="cls-1" d="m65.71,21.9C53.72,11.27,37.49,5.88,17.49,5.88H0v119.42h17.49c20,0,36.22-5.39,48.21-16.02,12.08-10.71,18.2-25.41,18.2-43.69s-6.12-32.99-18.2-43.69ZM17.49,114.38h-6.58V16.8h6.58c17.05,0,30.74,4.37,40.67,13,9.84,8.54,14.82,20.58,14.82,35.79s-4.99,27.25-14.82,35.79c-9.94,8.62-23.62,13-40.67,13Z"/>
      <polygon class="cls-1" points="92.82 125.3 104.56 125.3 145.91 27.99 182.58 114.38 119.54 114.38 119.54 125.3 199.01 125.3 145.91 0 92.82 125.3"/>
      <path class="cls-1" d="m282.33,56.29c4.47-5.12,6.73-11.08,6.73-17.72,0-10.17-4.38-18.3-13.03-24.16-8.34-5.65-20.66-8.52-36.61-8.52h-24.2v119.42h10.92V16.8h13.28c11.26,0,20.77,1.9,28.27,5.65,7.03,3.52,10.45,8.79,10.45,16.11,0,2-.24,3.87-.7,5.55-.44,1.6-1.14,3.05-2.07,4.31-1.09,1.47-2.09,2.76-2.98,3.84-.75.91-1.95,1.9-3.56,2.94-1.87,1.2-3.13,1.99-3.86,2.41-.71.41-2.08,1.11-4.07,2.08-2.05.99-3.21,1.56-3.48,1.69l-2.19,1.08,29.32,62.83h12.03l-27.44-58.72c5.01-2.56,9.43-6.02,13.17-10.3Z"/>
      <polygon class="cls-1" points="323.71 16.8 449.68 16.8 413.02 103.17 383.43 33.14 353.64 103.19 312.28 5.88 300.54 5.88 353.63 131.17 383.42 61.14 413.01 131.18 466.11 5.88 323.71 5.88 323.71 16.8"/>
      <rect class="cls-1" x="482.12" y="5.88" width="10.92" height="119.42"/>
      <polygon class="cls-1" points="595.75 5.88 595.75 103.18 535.33 5.88 525.52 5.88 525.52 125.3 536.43 125.3 536.43 27.81 596.85 125.3 606.66 125.3 606.66 5.88 595.75 5.88"/>
    </g>
  </g>
</svg>